<?xml version="1.0" encoding="iso-8859-1"?>
<!-- Generator: Adobe Illustrator 19.0.0, SVG Export Plug-In . SVG Version: 6.00 Build 0)  -->
<svg version="1.1" id="Capa_1" xmlns="http://www.w3.org/2000/svg" xmlns:xlink="http://www.w3.org/1999/xlink" x="0px" y="0px"
	 viewBox="0 0 512 512" style="enable-background:new 0 0 512 512;" xml:space="preserve">
<g>
	<g>
		<g>
			<polygon points="246.126,467.84 251.246,475.429 259.749,475.429 264.777,467.84 255.451,459.063 			"/>
			<path d="M284.709,408.411c-0.006-3.01,0.92-5.949,2.651-8.411c6.207-8.163,10.63-17.539,12.984-27.52
				c1.063-5.653,3.765-10.867,7.771-14.994l0.274-0.274c2.101-2.153,3.281-5.038,3.292-8.046v-19.383
				c0.031-1.779-0.378-3.537-1.19-5.12l-1.096-2.286c-2.037-4.09-3.101-8.596-3.11-13.166v-27.886
				c0.094-18.933-15.17-34.361-34.103-34.469h-32.366c-18.932,0.108-34.197,15.536-34.103,34.469v27.886
				c-0.008,4.57-1.072,9.075-3.109,13.166l-1.096,2.286c-0.812,1.583-1.22,3.341-1.19,5.12v19.383
				c0.011,3.008,1.192,5.893,3.292,8.046l0.274,0.274c4.006,4.127,6.709,9.342,7.771,14.994c2.339,9.941,6.73,19.284,12.891,27.429
				c1.786,2.475,2.746,5.451,2.742,8.503v14.903l28.251,13.074l29.166-13.166V408.411z"/>
			<path d="M351.726,474.24l-31.909-19.291l-18.469,14.537c-4.943,3.84-11.02,5.93-17.279,5.943
				c-0.736-0.046-1.469-0.138-2.194-0.274l-6.766,10.057L288.55,512h77.165v-12.891C365.664,488.958,360.374,479.554,351.726,474.24
				z"/>
			<path d="M208.274,445.166l12.616,9.874c2.596,2.101,6.116,2.658,9.234,1.463c1.292-0.294,2.469-0.962,3.384-1.92l5.85-5.486
				l-21.21-9.874L208.274,445.166z"/>
			<path d="M280.229,456.32c3.251,1.388,6.999,0.898,9.783-1.28l13.074-10.24l-9.234-5.669l-22.217,10.057l5.761,5.394
				C278.167,455.406,279.145,456.006,280.229,456.32z"/>
			<polygon points="251.977,493.714 242.834,512 268.069,512 258.926,493.714 			"/>
			<path d="M226.926,475.429c-6.307,0.012-12.431-2.116-17.373-6.034l-18.011-14.08l-31.269,18.926
				c-8.649,5.314-13.939,14.718-13.989,24.869V512h76.069l13.44-26.789l-6.674-9.966
				C228.394,475.352,227.661,475.413,226.926,475.429z"/>
			<circle cx="256" cy="82.286" r="9.143"/>
			<path d="M256,128c25.247,0,45.714-20.467,45.714-45.714S281.247,36.571,256,36.571s-45.714,20.467-45.714,45.714
				C210.295,107.529,230.756,127.991,256,128z M256,54.857c15.148,0,27.429,12.28,27.429,27.429s-12.28,27.429-27.429,27.429
				s-27.429-12.28-27.429-27.429C228.616,67.156,240.87,54.901,256,54.857z"/>
			<path d="M256,164.571c45.445,0,82.286-36.841,82.286-82.286C338.286,36.841,301.445,0,256,0s-82.286,36.841-82.286,82.286
				C173.783,127.702,210.583,164.503,256,164.571z M256,18.286c35.346,0,64,28.654,64,64c0,35.346-28.654,64-64,64
				c-35.346,0-64-28.654-64-64C192.039,46.956,220.67,18.325,256,18.286z"/>
			<path d="M82.286,137.143C36.841,137.143,0,173.983,0,219.429s36.841,82.286,82.286,82.286c45.445,0,82.286-36.841,82.286-82.286
				C164.503,174.012,127.703,137.211,82.286,137.143z M91.429,263.497v10.789c0,5.049-4.093,9.143-9.143,9.143
				c-5.049,0-9.143-4.093-9.143-9.143v-9.143H64c-5.049,0-9.143-4.093-9.143-9.143s4.093-9.143,9.143-9.143h18.286
				c5.049,0,9.143-4.093,9.143-9.143s-4.093-9.143-9.143-9.143c-13.351,0.022-24.772-9.588-27.033-22.746
				c-2.261-13.158,5.297-26.029,17.89-30.465v-10.789c0-5.049,4.093-9.143,9.143-9.143c5.049,0,9.143,4.093,9.143,9.143v9.143h9.143
				c5.049,0,9.143,4.093,9.143,9.143c0,5.049-4.093,9.143-9.143,9.143H82.286c-5.049,0-9.143,4.093-9.143,9.143
				c0,5.049,4.093,9.143,9.143,9.143c13.351-0.022,24.772,9.588,27.033,22.746C111.58,246.19,104.021,259.061,91.429,263.497z"/>
			<path d="M429.714,137.143c-45.445,0-82.286,36.841-82.286,82.286s36.841,82.286,82.286,82.286S512,264.874,512,219.429
				C511.932,174.012,475.131,137.211,429.714,137.143z M484.571,210.286c-0.015,5.043-4.099,9.128-9.143,9.143
				c-3.05-0.041-5.873-1.624-7.498-4.206l-31.177,37.486c-1.734,2.098-4.318,3.306-7.04,3.291h-0.274
				c-2.775-0.105-5.358-1.447-7.04-3.657l-19.656-26.24l-11.154,16.64c-2.777,4.191-8.426,5.338-12.618,2.561
				c-4.191-2.777-5.338-8.426-2.561-12.618l18.286-27.429c1.607-2.498,4.346-4.039,7.315-4.114c2.965-0.046,5.778,1.309,7.589,3.657
				l20.479,27.337l25.874-31.086c-4.777-0.623-8.249-4.847-7.935-9.654s4.307-8.544,9.124-8.54h18.286
				c1.096,0.027,2.178,0.243,3.2,0.64c0.274,0.091,0.548,0.274,0.823,0.366c0.725,0.371,1.401,0.832,2.011,1.371
				c0.183,0.183,0.366,0.274,0.549,0.457c0.681,0.746,1.265,1.576,1.737,2.469v0.091c0.091,0.274,0.091,0.457,0.183,0.731
				c0.322,0.817,0.508,1.682,0.549,2.56c0,0.183,0.091,0.274,0.091,0.457L484.571,210.286z"/>
		</g>
	</g>
</g>
<g>
</g>
<g>
</g>
<g>
</g>
<g>
</g>
<g>
</g>
<g>
</g>
<g>
</g>
<g>
</g>
<g>
</g>
<g>
</g>
<g>
</g>
<g>
</g>
<g>
</g>
<g>
</g>
<g>
</g>
</svg>
